HIERARCHY
ROOT Hips
{
	OFFSET 0.00000 0.00000 0.00000
	CHANNELS 6 Xposition Yposition Zposition Zrotation Yrotation Xrotation 
	JOINT LHipJoint
	{
		OFFSET 0 0 0
		CHANNELS 3 Zrotation Yrotation Xrotation
		JOINT LeftUpLeg
		{
			OFFSET 3.13874 -1.57224 1.49786
			CHANNELS 3 Zrotation Yrotation Xrotation
			JOINT LeftLeg
			{
				OFFSET 2.10955 -5.79594 0.00000
				CHANNELS 3 Zrotation Yrotation Xrotation
				JOINT LeftFoot
				{
					OFFSET 2.41843 -6.64458 0.00000
					CHANNELS 3 Zrotation Yrotation Xrotation
					JOINT LeftToeBase
					{
						OFFSET 0.04713 -0.12948 1.66229
						CHANNELS 3 Zrotation Yrotation Xrotation
						End Site
						{
							OFFSET 0.00000 -0.00000 0.85167
						}
					}
				}
			}
		}
	}
	JOINT RHipJoint
	{
		OFFSET 0 0 0
		CHANNELS 3 Zrotation Yrotation Xrotation
		JOINT RightUpLeg
		{
			OFFSET -3.13988 -1.57224 1.49786
			CHANNELS 3 Zrotation Yrotation Xrotation
			JOINT RightLeg
			{
				OFFSET -2.15006 -5.90725 0.00000
				CHANNELS 3 Zrotation Yrotation Xrotation
				JOINT RightFoot
				{
					OFFSET -2.34496 -6.44273 0.00000
					CHANNELS 3 Zrotation Yrotation Xrotation
					JOINT RightToeBase
					{
						OFFSET -0.08699 -0.23900 1.55223
						CHANNELS 3 Zrotation Yrotation Xrotation
						End Site
						{
							OFFSET -0.00000 -0.00000 0.80281
						}
					}
				}
			}
		}
	}
	JOINT LowerBack
	{
		OFFSET 0 0 0
		CHANNELS 3 Zrotation Yrotation Xrotation
		JOINT Spine
		{
			OFFSET 0.01292 1.96517 -0.16495
			CHANNELS 3 Zrotation Yrotation Xrotation
			JOINT Spine1
			{
				OFFSET 0.02122 1.88666 0.19706
				CHANNELS 3 Zrotation Yrotation Xrotation
				JOINT Neck
				{
					OFFSET 0 0 0
					CHANNELS 3 Zrotation Yrotation Xrotation
					JOINT Neck1
					{
						OFFSET -0.01683 1.81591 0.07903
						CHANNELS 3 Zrotation Yrotation Xrotation
						JOINT Head
						{
							OFFSET 0.00815 1.74013 -0.47700
							CHANNELS 3 Zrotation Yrotation Xrotation
							End Site
							{
								OFFSET -0.00204 1.83225 -0.16933
							}
						}
					}
				}
				JOINT LeftShoulder
				{
					OFFSET 0 0 0
					CHANNELS 3 Zrotation Yrotation Xrotation
					JOINT LeftArm
					{
						OFFSET 3.38482 1.41533 0.19802
						CHANNELS 3 Zrotation Yrotation Xrotation
						JOINT LeftForeArm
						{
							OFFSET 4.32712 -0.00000 0.00000
							CHANNELS 3 Zrotation Yrotation Xrotation
							JOINT LeftHand
							{
								OFFSET 3.28587 -0.00000 -0.00000
								CHANNELS 3 Zrotation Yrotation Xrotation
								JOINT LeftFingerBase
								{
									OFFSET 0 0 0
									CHANNELS 3 Zrotation Yrotation Xrotation
									JOINT LeftHandIndex1
									{
										OFFSET 0.43316 -0.00000 -0.00000
										CHANNELS 3 Zrotation Yrotation Xrotation
										End Site
										{
											OFFSET 0.34922 -0.00000 -0.00000
										}
									}
								}
								JOINT LThumb
								{
									OFFSET 0 0 0
									CHANNELS 3 Zrotation Yrotation Xrotation
									End Site
									{
										OFFSET 0.35456 -0.00000 0.35456
									}
								}
							}
						}
					}
				}
				JOINT RightShoulder
				{
					OFFSET 0 0 0
					CHANNELS 3 Zrotation Yrotation Xrotation
					JOINT RightArm
					{
						OFFSET -3.09725 1.62858 -0.14144
						CHANNELS 3 Zrotation Yrotation Xrotation
						JOINT RightForeArm
						{
							OFFSET -4.29104 -0.00000 0.00000
							CHANNELS 3 Zrotation Yrotation Xrotation
							JOINT RightHand
							{
								OFFSET -3.22720 -0.00000 -0.00000
								CHANNELS 3 Zrotation Yrotation Xrotation
								JOINT RightFingerBase
								{
									OFFSET 0 0 0
									CHANNELS 3 Zrotation Yrotation Xrotation
									JOINT RightHandIndex1
									{
										OFFSET -0.54362 -0.00000 -0.00000
										CHANNELS 3 Zrotation Yrotation Xrotation
										End Site
										{
											OFFSET -0.43828 -0.00000 -0.00000
										}
									}
								}
								JOINT RThumb
								{
									OFFSET 0 0 0
									CHANNELS 3 Zrotation Yrotation Xrotation
									End Site
									{
										OFFSET -0.44497 -0.00000 0.44497
									}
								}
							}
						}
					}
				}
			}
		}
	}
}
MOTION
Frames: 8
Frame Time: .0083333
-36.1104 16.2793 2.1819 0 0 0 0 0 0 -21 0 0 0 0 0 0 0 0 0 0 0 0 0 0 21 0 0 0 0 0 0 0 0 0 0 0 0 0 0 0 0 0 0 0 0 0 0 -16 0 0 21 0 0 11 0 0 0 -8 0 0 0 0 0 0 0 0 0 0 0 0 0 0 0 0 0 0 0 0 8 0 0 0 0 0 0 0 0 0 0 0 0 0 0 0 0 0
-36.1104 16.2793 2.1819 -176.4020 1.8123 -168.1970 0.0000 0.0000 0.0000 -30.8429 -39.9191 15.4013 0.0249 -1.0185 -2.7997 4.2053 -16.6314 -37.4487 0.3050 -3.5507 -9.8160 0.0000 0.0000 0.0000 38.9470 31.6922 17.3662 -0.2939 3.4858 -9.6344 -0.9754 -28.7753 -44.4234 -3.4867 -11.4441 33.7926 -4.7407 -0.8324 4.8659 6.3118 0.1430 -9.8410 9.6579 1.4968 -13.6208 -6.9650 -0.6357 -16.0860 1.4586 2.4505 29.3881 2.2638 1.1614 12.3189 -0.0000 -0.0000 0.0000 -89.5679 20.5087 21.7609 19.0698 -29.5053 -5.0652 -0.0000 -0.0000 1.6965 27.0556 25.4865 12.3951 -7.1250 0.0000 -0.0000 -3.0039 58.1131 -0.9644 -0.0000 -0.0000 0.0000 64.2840 -14.1047 53.8951 -17.2508 27.1873 -4.2013 0.0000 -0.0000 -13.2872 -28.7750 -21.4369 11.3493 7.1250 -0.0000 -0.0000 -0.0640 -54.1099 0.0143
-36.1113 16.2825 2.1779 -176.3880 1.7559 -168.2410 0.0000 0.0000 0.0000 -30.6805 -39.4860 15.1459 0.0296 -1.1115 -3.0556 4.2405 -15.1268 -37.5024 0.3386 -3.7396 -10.3452 0.0000 0.0000 0.0000 39.0041 31.5934 17.4463 -0.2978 3.5090 -9.6992 -4.4113 -16.8184 -47.6145 -2.1566 -9.1849 26.3756 -4.0298 -1.0927 5.4834 5.8728 -0.1903 -10.1567 8.8218 1.2652 -14.2960 -6.0967 -0.3872 -16.0929 1.2454 2.6650 29.7065 2.0779 1.3325 12.4469 -0.0000 -0.0000 0.0000 -88.7479 21.1253 21.3187 19.2229 -29.6947 -5.1408 -0.0000 -0.0000 1.2710 27.0580 25.5349 12.4176 -7.1250 0.0000 -0.0000 -3.0190 58.1651 -0.9730 -0.0000 -0.0000 0.0000 65.2219 -14.4293 53.9698 -17.2068 27.1296 -4.1812 0.0000 -0.0000 -11.9507 -28.1855 -21.8191 11.2642 7.1250 -0.0000 -0.0000 0.6541 -54.4070 -0.1512
-36.1120 16.2841 2.1740 -176.3900 1.7341 -168.2590 0.0000 0.0000 0.0000 -30.5317 -39.0203 14.8409 0.0311 -1.1384 -3.1297 4.1901 -13.8414 -37.2168 0.3926 -4.0233 -11.1422 0.0000 0.0000 0.0000 39.0124 31.5477 17.4859 -0.2996 3.5192 -9.7279 -4.4131 -17.1659 -47.8352 -1.9892 -8.8435 25.3070 -3.8860 -1.1372 5.9347 5.7410 -0.2278 -10.3971 8.6220 1.2657 -14.8670 -5.6803 -0.3844 -16.0098 0.8488 2.7081 29.8717 1.8682 1.3576 12.5082 -0.0000 0.0000 0.0000 -88.4078 21.5621 21.4933 19.3110 -29.8033 -5.1845 -0.0000 -0.0000 0.7944 25.3709 25.3471 11.4757 -7.1250 0.0000 -0.0000 -4.8214 57.5814 -1.4876 -0.0000 0.0000 0.0000 65.5524 -14.9362 53.8232 -17.1897 27.1071 -4.1734 0.0000 -0.0000 -11.2651 -27.9469 -21.6628 11.0805 7.1250 -0.0000 -0.0000 0.8690 -54.1878 -0.1962
-36.1110 16.2845 2.1707 -176.3520 1.7023 -168.2740 0.0000 0.0000 0.0000 -30.4588 -38.9795 14.7586 0.0277 -1.0748 -2.9548 4.2345 -12.9973 -37.4043 0.4640 -4.3691 -12.1176 0.0000 0.0000 0.0000 39.0968 31.5077 17.5265 -0.3007 3.5255 -9.7455 -4.2087 -18.0549 -47.6236 -2.0129 -8.8930 25.4611 -3.9460 -1.1251 5.8130 5.8085 -0.2130 -10.3316 8.7245 1.2747 -14.7138 -5.4502 -0.3911 -15.9450 0.2944 2.7754 29.6529 1.6208 1.3391 12.4196 -0.0000 0.0000 0.0000 -88.4785 21.3048 21.3879 19.1806 -29.6425 -5.1199 -0.0000 -0.0000 0.9103 23.7385 24.7771 10.4426 -7.1250 0.0000 -0.0000 -6.3689 56.6257 -1.8202 -0.0000 0.0000 0.0000 65.3793 -14.7118 54.3605 -17.1990 27.1194 -4.1776 0.0000 -0.0000 -11.7945 -28.0149 -21.5867 11.0753 7.1250 -0.0000 -0.0000 0.7782 -54.1187 -0.1744
-36.1108 16.2856 2.1678 -176.3400 1.6709 -168.2900 0.0000 0.0000 0.0000 -30.3715 -38.8045 14.6058 0.0264 -1.0498 -2.8860 4.2495 -11.9049 -37.4745 0.5530 -4.7638 -13.2360 0.0000 0.0000 0.0000 39.1302 31.4622 17.5567 -0.3021 3.5337 -9.7684 -4.4385 -17.0728 -47.8738 -1.9440 -8.7484 25.0113 -3.8691 -1.1593 5.9417 5.7583 -0.2528 -10.3952 8.6367 1.2538 -14.8644 -5.0820 -0.3614 -15.8736 -0.2009 2.8628 29.5882 1.3812 1.3580 12.3914 0.0000 -0.0000 0.0000 -88.3171 21.3293 21.3413 19.1340 -29.5848 -5.0968 -0.0000 -0.0000 0.8215 22.8125 24.4887 9.8902 -7.1250 0.0000 -0.0000 -7.2412 56.1292 -1.9840 0.0000 -0.0000 0.0000 65.5116 -14.7694 54.5680 -17.1977 27.1176 -4.1770 0.0000 -0.0000 -11.7019 -27.8728 -21.5304 10.9840 7.1250 -0.0000 -0.0000 0.9149 -54.0286 -0.2030
-36.1103 16.2864 2.1655 -176.3260 1.6397 -168.3070 0.0000 0.0000 0.0000 -30.3251 -38.7639 14.5431 0.0243 -1.0067 -2.7671 4.2904 -10.7223 -37.6946 0.6792 -5.2694 -14.6786 0.0000 0.0000 0.0000 39.1572 31.4236 17.5710 -0.3025 3.5362 -9.7754 -4.4432 -17.0884 -47.9011 -1.9261 -8.7103 24.8933 -3.8524 -1.1704 6.0131 5.7501 -0.2647 -10.4210 8.6241 1.2512 -14.9395 -4.7648 -0.3499 -15.8079 -0.7340 2.9432 29.4684 1.1343 1.3623 12.3439 -0.0000 0.0000 0.0000 -88.2323 21.2705 21.3285 19.0678 -29.5028 -5.0642 -0.0000 -0.0000 0.7787 21.9892 24.2142 9.4040 -7.1250 0.0000 -0.0000 -7.9987 55.6745 -2.1050 -0.0000 0.0000 0.0000 65.5737 -14.7781 54.7771 -17.2083 27.1315 -4.1819 0.0000 -0.0000 -11.7408 -27.7514 -21.4516 10.8919 7.1250 -0.0000 -0.0000 1.0237 -53.9183 -0.2244
-36.1095 16.2871 2.1639 -176.3040 1.6044 -168.3270 0.0000 0.0000 0.0000 -30.2621 -38.7048 14.4671 0.0224 -0.9662 -2.6557 4.2882 -9.9957 -37.7180 0.7786 -5.6338 -15.7255 0.0000 0.0000 0.0000 39.1792 31.3877 17.5654 -0.3015 3.5307 -9.7598 -4.4478 -17.0668 -47.9053 -1.9309 -8.7207 24.9256 -3.8231 -1.1780 6.0662 5.7511 -0.2721 -10.4242 8.6120 1.2462 -14.9760 -4.4759 -0.3398 -15.7623 -1.2707 3.0261 29.3212 0.8916 1.3629 12.2901 0.0000 -0.0000 0.0000 -88.1801 21.1719 21.3062 19.0025 -29.4218 -5.0321 -0.0000 -0.0000 0.7539 21.2564 23.9821 8.9848 -7.1250 0.0000 -0.0000 -8.6698 55.2867 -2.2016 0.0000 -0.0000 0.0000 65.6304 -14.7573 54.9916 -17.2314 27.1618 -4.1924 0.0000 -0.0000 -11.8314 -27.6306 -21.4227 10.8240 7.1250 -0.0000 -0.0000 1.1439 -53.8626 -0.2493
